<svg width="40.000000" height="40.000000" viewBox="0 0 40 40" fill="none" xmlns="http://www.w3.org/2000/svg" xmlns:xlink="http://www.w3.org/1999/xlink">
	<desc>
			Created with Pixso.
	</desc>
	<defs/>
	<circle id="BG" cx="20.000000" cy="20.000000" r="20.000000" fill="#61C4A1" fill-opacity="1.000000"/>
	<circle id="BG" cx="20.000000" cy="20.000000" r="19.500000" stroke="#000000" stroke-opacity="1.000000" stroke-width="1.000000"/>
	<path id="Call" d="M27.76 23.9203C26.4636 22.8869 25.1479 22.261 23.8674 23.2928L23.103 23.9164C22.5435 24.3691 21.5034 26.4842 17.4819 22.1728C13.4614 17.8668 15.854 17.1963 16.4143 16.7475L17.1831 16.1231C18.4568 15.089 17.9761 13.7871 17.0574 12.447L16.5032 11.6353C15.5801 10.2983 14.5752 9.4202 13.2981 10.4528L12.6082 11.0148C12.0437 11.398 10.4658 12.6437 10.0833 15.0101C9.62256 17.8496 11.0757 21.1011 14.4045 24.6688C17.729 28.238 20.9841 30.0308 24.0676 29.9996C26.6304 29.9738 28.1777 28.6923 28.6619 28.2263L29.3545 27.6636C30.6282 26.6317 29.8369 25.5812 28.5396 24.5455L27.76 23.9203Z" fill="#FFFFFF" fill-opacity="1.000000" fill-rule="nonzero"/>
</svg>
