<svg width="103" height="14" viewBox="0 0 103 14" fill="none" xmlns="http://www.w3.org/2000/svg">
<path d="M7.73 5.566V0.399999H9.8V13H7.73V7.546H2.33V13H0.26V0.399999H2.33V5.566H7.73ZM19.8066 11.866C18.8946 12.778 17.7726 13.234 16.4406 13.234C15.1086 13.234 13.9866 12.778 13.0746 11.866C12.1506 10.942 11.6886 9.82 11.6886 8.5C11.6886 7.18 12.1506 6.058 13.0746 5.134C13.9866 4.222 15.1086 3.766 16.4406 3.766C17.7726 3.766 18.8946 4.222 19.8066 5.134C20.7306 6.058 21.1926 7.18 21.1926 8.5C21.1926 9.82 20.7306 10.942 19.8066 11.866ZM13.6326 8.5C13.6326 9.316 13.9026 9.994 14.4426 10.534C14.9826 11.074 15.6486 11.344 16.4406 11.344C17.2326 11.344 17.8986 11.074 18.4386 10.534C18.9786 9.994 19.2486 9.316 19.2486 8.5C19.2486 7.684 18.9786 7.006 18.4386 6.466C17.8986 5.926 17.2326 5.656 16.4406 5.656C15.6486 5.656 14.9826 5.926 14.4426 6.466C13.9026 7.006 13.6326 7.684 13.6326 8.5ZM29.1784 8.374C30.0664 8.794 30.5104 9.484 30.5104 10.444C30.5104 11.212 30.2464 11.83 29.7184 12.298C29.2024 12.766 28.4824 13 27.5584 13H22.9504V4H27.1984C28.1104 4 28.8244 4.228 29.3404 4.684C29.8564 5.14 30.1144 5.74 30.1144 6.484C30.1144 7.336 29.8024 7.966 29.1784 8.374ZM27.0544 5.656H24.8044V7.654H27.0544C27.8464 7.654 28.2424 7.318 28.2424 6.646C28.2424 5.986 27.8464 5.656 27.0544 5.656ZM24.8044 11.308H27.3784C28.1944 11.308 28.6024 10.954 28.6024 10.246C28.6024 9.934 28.4944 9.694 28.2784 9.526C28.0624 9.346 27.7624 9.256 27.3784 9.256H24.8044V11.308ZM39.705 11.866C38.793 12.778 37.671 13.234 36.339 13.234C35.007 13.234 33.885 12.778 32.973 11.866C32.049 10.942 31.587 9.82 31.587 8.5C31.587 7.18 32.049 6.058 32.973 5.134C33.885 4.222 35.007 3.766 36.339 3.766C37.671 3.766 38.793 4.222 39.705 5.134C40.629 6.058 41.091 7.18 41.091 8.5C41.091 9.82 40.629 10.942 39.705 11.866ZM33.531 8.5C33.531 9.316 33.801 9.994 34.341 10.534C34.881 11.074 35.547 11.344 36.339 11.344C37.131 11.344 37.797 11.074 38.337 10.534C38.877 9.994 39.147 9.316 39.147 8.5C39.147 7.684 38.877 7.006 38.337 6.466C37.797 5.926 37.131 5.656 36.339 5.656C35.547 5.656 34.881 5.926 34.341 6.466C33.801 7.006 33.531 7.684 33.531 8.5ZM51.5428 9.328H44.3788C44.5228 10 44.8468 10.522 45.3508 10.894C45.8668 11.266 46.5028 11.452 47.2588 11.452C48.2788 11.452 49.0528 11.08 49.5808 10.336L51.1828 11.272C50.3068 12.58 48.9928 13.234 47.2408 13.234C45.7888 13.234 44.6068 12.79 43.6948 11.902C42.7948 11.002 42.3448 9.868 42.3448 8.5C42.3448 7.168 42.7888 6.046 43.6768 5.134C44.5528 4.222 45.6928 3.766 47.0968 3.766C48.4048 3.766 49.4848 4.228 50.3368 5.152C51.1888 6.076 51.6148 7.198 51.6148 8.518C51.6148 8.758 51.5908 9.028 51.5428 9.328ZM44.3608 7.744H49.6528C49.5208 7.036 49.2208 6.49 48.7528 6.106C48.2968 5.722 47.7388 5.53 47.0788 5.53C46.3588 5.53 45.7588 5.728 45.2788 6.124C44.7988 6.52 44.4928 7.06 44.3608 7.744ZM65.0254 4H67.0054V13H65.1154V7.078L62.5234 11.2H62.2894L59.7154 7.096V13H57.8254V4H59.8054L62.4154 8.158L65.0254 4ZM77.9452 9.328H70.7812C70.9252 10 71.2492 10.522 71.7532 10.894C72.2692 11.266 72.9052 11.452 73.6612 11.452C74.6812 11.452 75.4552 11.08 75.9832 10.336L77.5852 11.272C76.7092 12.58 75.3952 13.234 73.6432 13.234C72.1912 13.234 71.0092 12.79 70.0972 11.902C69.1972 11.002 68.7472 9.868 68.7472 8.5C68.7472 7.168 69.1912 6.046 70.0792 5.134C70.9552 4.222 72.0952 3.766 73.4992 3.766C74.8072 3.766 75.8872 4.228 76.7392 5.152C77.5912 6.076 78.0172 7.198 78.0172 8.518C78.0172 8.758 77.9932 9.028 77.9452 9.328ZM70.7632 7.744H76.0552C75.9232 7.036 75.6232 6.49 75.1552 6.106C74.6992 5.722 74.1412 5.53 73.4812 5.53C72.7612 5.53 72.1612 5.728 71.6812 6.124C71.2012 6.52 70.8952 7.06 70.7632 7.744ZM85.7938 7.582V4H87.7378V13H85.7938V9.418H81.6718V13H79.7278V4H81.6718V7.582H85.7938ZM98.0214 3.766C99.3534 3.766 100.475 4.222 101.387 5.134C102.311 6.058 102.773 7.18 102.773 8.5C102.773 9.82 102.311 10.942 101.387 11.866C100.475 12.778 99.3534 13.234 98.0214 13.234C96.8574 13.234 95.8494 12.88 94.9974 12.172C94.1454 11.452 93.6234 10.534 93.4314 9.418H91.9374V13H89.9934V4H91.9374V7.582H93.4314C93.6354 6.454 94.1574 5.542 94.9974 4.846C95.8494 4.126 96.8574 3.766 98.0214 3.766ZM95.2134 8.5C95.2134 9.316 95.4834 9.994 96.0234 10.534C96.5634 11.074 97.2294 11.344 98.0214 11.344C98.8134 11.344 99.4794 11.074 100.019 10.534C100.559 9.994 100.829 9.316 100.829 8.5C100.829 7.684 100.559 7.006 100.019 6.466C99.4794 5.926 98.8134 5.656 98.0214 5.656C97.2294 5.656 96.5634 5.926 96.0234 6.466C95.4834 7.006 95.2134 7.684 95.2134 8.5Z" fill="white"/>
</svg>
